# xmcd
#
# Track frame offsets: 
#        150
#        18872
#        38117
#        55162
#        74532
#        94062
#        110307
#        131097
#        154590
#        171885
#
# Disc length: 2507 seconds
#
# Revision: 0
# Processed by: cddbd v1.5.2PL0 Copyright (c) Steve Scherf et al.
# Submitted via: ExactAudioCopy v0.95b4
#
DISCID=7d09c90a
DTITLE=Y.I.Y.O. - 大風吹
DYEAR=2002
DGENRE=R&B
TTITLE0=一直往前走
TTITLE1=大風吹
TTITLE2=玩具
TTITLE3=你又不是我
TTITLE4=那當然
TTITLE5=受不了
TTITLE6=自己的太陽
TTITLE7=寂寞電梯
TTITLE8=慢慢來
TTITLE9=比我勇敢
EXTD=
EXTT0=
EXTT1=
EXTT2=
EXTT3=
EXTT4=
EXTT5=
EXTT6=
EXTT7=
EXTT8=
EXTT9=
PLAYORDER=
